<svg width="82" height="32" viewBox="0 0 82 32" fill="none" xmlns="http://www.w3.org/2000/svg">
<path d="M1.17 1.616H5.634C7.482 1.616 8.91 1.976 9.918 2.696C10.938 3.416 11.448 4.424 11.448 5.72C11.448 6.536 11.196 7.25 10.692 7.862C10.2 8.474 9.522 8.948 8.658 9.284C7.806 9.608 6.858 9.77 5.814 9.77H5.058V14H1.17V1.616ZM5.832 7.268C6.468 7.268 6.96 7.136 7.308 6.872C7.656 6.608 7.83 6.224 7.83 5.72C7.83 5.216 7.656 4.838 7.308 4.586C6.972 4.334 6.48 4.208 5.832 4.208H5.058V7.232C5.298 7.256 5.556 7.268 5.832 7.268ZM15.6893 14.144C14.9093 14.144 14.1772 13.94 13.4932 13.532C12.8212 13.112 12.2812 12.548 11.8732 11.84C11.4652 11.12 11.2612 10.322 11.2612 9.446C11.2612 8.582 11.4652 7.802 11.8732 7.106C12.2812 6.398 12.8272 5.846 13.5112 5.45C14.1952 5.054 14.9213 4.856 15.6893 4.856C16.3133 4.856 16.8892 5.03 17.4172 5.378C17.9573 5.726 18.3653 6.248 18.6413 6.944V4.856H22.4213V14H18.6413V12.326C18.0413 13.538 17.0573 14.144 15.6893 14.144ZM16.8593 11.3C17.3393 11.3 17.7473 11.132 18.0832 10.796C18.4313 10.448 18.6173 10.04 18.6413 9.572V9.428C18.6173 8.948 18.4253 8.54 18.0653 8.204C17.7173 7.868 17.3153 7.7 16.8593 7.7C16.3552 7.7 15.9232 7.88 15.5632 8.24C15.2152 8.588 15.0412 9.008 15.0412 9.5C15.0412 10.004 15.2212 10.43 15.5813 10.778C15.9413 11.126 16.3673 11.3 16.8593 11.3ZM27.4665 14.144C26.6505 14.144 25.9065 13.928 25.2345 13.496C24.5745 13.064 24.0525 12.494 23.6685 11.786C23.2845 11.066 23.0925 10.304 23.0925 9.5C23.0925 8.648 23.2905 7.868 23.6865 7.16C24.0945 6.44 24.6345 5.876 25.3065 5.468C25.9905 5.06 26.7165 4.856 27.4845 4.856C28.1805 4.856 28.7685 5 29.2485 5.288C29.7405 5.576 30.1365 6.038 30.4365 6.674V2.138L34.2345 1.58V14H30.4365V12.326C29.8725 13.538 28.8825 14.144 27.4665 14.144ZM28.6545 11.3C29.1585 11.3 29.5785 11.12 29.9145 10.76C30.2625 10.4 30.4365 9.98 30.4365 9.5V9.428C30.4365 8.96 30.2565 8.558 29.8965 8.222C29.5365 7.874 29.1225 7.7 28.6545 7.7C28.1505 7.7 27.7245 7.88 27.3765 8.24C27.0405 8.588 26.8725 9.008 26.8725 9.5C26.8725 10.004 27.0465 10.43 27.3945 10.778C27.7545 11.126 28.1745 11.3 28.6545 11.3ZM40.0172 14.144C39.0212 14.144 38.1332 13.946 37.3532 13.55C36.5852 13.142 35.9852 12.59 35.5532 11.894C35.1212 11.186 34.9052 10.388 34.9052 9.5C34.9052 8.588 35.1272 7.778 35.5712 7.07C36.0152 6.362 36.6152 5.816 37.3712 5.432C38.1272 5.048 38.9672 4.856 39.8912 4.856C40.7792 4.856 41.5352 5.054 42.1592 5.45C42.7952 5.834 43.2692 6.362 43.5812 7.034C43.8932 7.694 44.0492 8.438 44.0492 9.266C44.0492 9.482 44.0372 9.638 44.0132 9.734L38.6132 10.436C38.7572 10.856 38.9912 11.162 39.3152 11.354C39.6392 11.534 40.0652 11.624 40.5932 11.624C41.4092 11.624 42.2912 11.414 43.2392 10.994L43.6892 13.406C42.5732 13.898 41.3492 14.144 40.0172 14.144ZM41.2592 8.168C41.0672 7.412 40.6112 7.034 39.8912 7.034C39.4592 7.034 39.1172 7.196 38.8652 7.52C38.6132 7.844 38.4812 8.264 38.4692 8.78L41.2592 8.168ZM47.8052 14.144C46.7852 14.144 45.9932 13.826 45.4292 13.19C44.8772 12.542 44.6012 11.66 44.6012 10.544V2.138L48.3992 1.58V10.274C48.3992 10.61 48.4772 10.856 48.6332 11.012C48.8012 11.156 49.0892 11.228 49.4972 11.228C49.7972 11.228 50.0912 11.156 50.3792 11.012L50.5052 13.532C49.7012 13.94 48.8012 14.144 47.8052 14.144ZM1.17 14.616H4.914L8.01 20.628L11.034 14.616H14.778V27H11.034V20.394L8.748 24.714H7.218L4.914 20.394V27H1.17V14.616ZM20.787 27.144C19.779 27.144 18.879 26.946 18.087 26.55C17.307 26.154 16.695 25.608 16.251 24.912C15.819 24.204 15.603 23.394 15.603 22.482C15.603 21.57 15.825 20.766 16.269 20.07C16.713 19.362 17.325 18.816 18.105 18.432C18.897 18.048 19.797 17.856 20.805 17.856C21.825 17.856 22.725 18.054 23.505 18.45C24.297 18.834 24.909 19.374 25.341 20.07C25.773 20.766 25.989 21.57 25.989 22.482C25.989 23.406 25.767 24.222 25.323 24.93C24.891 25.626 24.279 26.172 23.487 26.568C22.707 26.952 21.807 27.144 20.787 27.144ZM20.823 24.444C21.315 24.444 21.717 24.264 22.029 23.904C22.353 23.532 22.515 23.058 22.515 22.482C22.515 21.906 22.353 21.438 22.029 21.078C21.717 20.706 21.315 20.52 20.823 20.52C20.331 20.52 19.923 20.706 19.599 21.078C19.287 21.438 19.131 21.906 19.131 22.482C19.131 23.058 19.287 23.532 19.599 23.904C19.923 24.264 20.331 24.444 20.823 24.444ZM26.6182 18.108H30.2362V19.944C30.9322 18.552 32.0362 17.856 33.5482 17.856C34.7002 17.856 35.6002 18.27 36.2482 19.098C36.9082 19.914 37.2382 21.048 37.2382 22.5V27H33.4582V22.122C33.4582 21.606 33.3442 21.21 33.1162 20.934C32.9002 20.658 32.5942 20.52 32.1982 20.52C31.9102 20.52 31.6282 20.616 31.3522 20.808C31.0762 20.988 30.8482 21.252 30.6682 21.6C30.5002 21.948 30.4162 22.344 30.4162 22.788V27H26.6182V18.108ZM42.1976 27.144C41.3816 27.144 40.6376 26.928 39.9656 26.496C39.3056 26.064 38.7836 25.494 38.3996 24.786C38.0156 24.066 37.8236 23.304 37.8236 22.5C37.8236 21.648 38.0216 20.868 38.4176 20.16C38.8256 19.44 39.3656 18.876 40.0376 18.468C40.7216 18.06 41.4476 17.856 42.2156 17.856C42.9116 17.856 43.4996 18 43.9796 18.288C44.4716 18.576 44.8676 19.038 45.1676 19.674V15.138L48.9656 14.58V27H45.1676V25.326C44.6036 26.538 43.6136 27.144 42.1976 27.144ZM43.3856 24.3C43.8896 24.3 44.3096 24.12 44.6456 23.76C44.9936 23.4 45.1676 22.98 45.1676 22.5V22.428C45.1676 21.96 44.9876 21.558 44.6276 21.222C44.2676 20.874 43.8536 20.7 43.3856 20.7C42.8816 20.7 42.4556 20.88 42.1076 21.24C41.7716 21.588 41.6036 22.008 41.6036 22.5C41.6036 23.004 41.7776 23.43 42.1256 23.778C42.4856 24.126 42.9056 24.3 43.3856 24.3ZM54.7484 27.144C53.7524 27.144 52.8644 26.946 52.0844 26.55C51.3164 26.142 50.7164 25.59 50.2844 24.894C49.8524 24.186 49.6364 23.388 49.6364 22.5C49.6364 21.588 49.8584 20.778 50.3024 20.07C50.7464 19.362 51.3464 18.816 52.1024 18.432C52.8584 18.048 53.6984 17.856 54.6224 17.856C55.5104 17.856 56.2664 18.054 56.8904 18.45C57.5264 18.834 58.0004 19.362 58.3124 20.034C58.6244 20.694 58.7804 21.438 58.7804 22.266C58.7804 22.482 58.7684 22.638 58.7444 22.734L53.3444 23.436C53.4884 23.856 53.7224 24.162 54.0464 24.354C54.3704 24.534 54.7964 24.624 55.3244 24.624C56.1404 24.624 57.0224 24.414 57.9704 23.994L58.4204 26.406C57.3044 26.898 56.0804 27.144 54.7484 27.144ZM55.9904 21.168C55.7984 20.412 55.3424 20.034 54.6224 20.034C54.1904 20.034 53.8484 20.196 53.5964 20.52C53.3444 20.844 53.2124 21.264 53.2004 21.78L55.9904 21.168ZM64.4624 31.122C63.8024 31.122 63.1724 31.056 62.5724 30.924L62.8604 28.26C63.3284 28.332 63.7604 28.368 64.1564 28.368C64.9004 28.368 65.4644 28.146 65.8484 27.702C66.2324 27.27 66.4604 26.538 66.5324 25.506C65.8244 26.502 64.7444 27 63.2924 27C62.5004 27 61.7684 26.796 61.0964 26.388C60.4364 25.98 59.9084 25.428 59.5124 24.732C59.1284 24.036 58.9364 23.274 58.9364 22.446C58.9364 21.606 59.1284 20.838 59.5124 20.142C59.8964 19.434 60.4184 18.876 61.0784 18.468C61.7504 18.06 62.4824 17.856 63.2744 17.856C64.0064 17.856 64.6424 18.048 65.1824 18.432C65.7344 18.804 66.0944 19.308 66.2624 19.944V17.856H70.0604V24.714C70.0604 26.814 69.5804 28.404 68.6204 29.484C67.6724 30.576 66.2864 31.122 64.4624 31.122ZM64.4624 24.3C64.9424 24.3 65.3564 24.132 65.7044 23.796C66.0524 23.448 66.2384 23.04 66.2624 22.572V22.428C66.2384 21.972 66.0464 21.57 65.6864 21.222C65.3384 20.874 64.9304 20.7 64.4624 20.7C63.9704 20.7 63.5504 20.88 63.2024 21.24C62.8544 21.588 62.6804 22.008 62.6804 22.5C62.6804 22.992 62.8544 23.418 63.2024 23.778C63.5504 24.126 63.9704 24.3 64.4624 24.3ZM75.898 27.144C74.89 27.144 73.99 26.946 73.198 26.55C72.418 26.154 71.806 25.608 71.362 24.912C70.93 24.204 70.714 23.394 70.714 22.482C70.714 21.57 70.936 20.766 71.38 20.07C71.824 19.362 72.436 18.816 73.216 18.432C74.008 18.048 74.908 17.856 75.916 17.856C76.936 17.856 77.836 18.054 78.616 18.45C79.408 18.834 80.02 19.374 80.452 20.07C80.884 20.766 81.1 21.57 81.1 22.482C81.1 23.406 80.878 24.222 80.434 24.93C80.002 25.626 79.39 26.172 78.598 26.568C77.818 26.952 76.918 27.144 75.898 27.144ZM75.934 24.444C76.426 24.444 76.828 24.264 77.14 23.904C77.464 23.532 77.626 23.058 77.626 22.482C77.626 21.906 77.464 21.438 77.14 21.078C76.828 20.706 76.426 20.52 75.934 20.52C75.442 20.52 75.034 20.706 74.71 21.078C74.398 21.438 74.242 21.906 74.242 22.482C74.242 23.058 74.398 23.532 74.71 23.904C75.034 24.264 75.442 24.444 75.934 24.444Z" fill="#F9F9F9"/>
<path d="M56.5 4L57.5 3L59 4L59.5 3.5L60 3L60.5 2L61.5 2.5L62.5 3L64 4L64.5 6L64 9L62 11L61.5 10.5L55.5 6L56.5 4Z" fill="#609966"/>
<path d="M62.9613 2.73563C62.1767 2.18247 61.2645 1.91683 60.2974 1.92703C60.1995 1.62729 60.0046 1.34316 59.7002 1.1495C59.3359 0.89268 58.8977 0.793398 58.4861 0.859712C58.0503 0.929927 57.6654 1.16184 57.4244 1.51618C57.0776 1.98466 57.02 2.55216 57.2211 3.02945C56.7992 3.34013 56.413 3.71788 56.1108 4.1549C55.2337 5.33986 54.8737 6.80557 55.1189 8.17375C55.1571 8.41031 55.2474 8.66273 55.3339 8.8915L55.3378 8.91515C55.3416 8.93881 55.9998 10.0948 55.31 11.0554L54.1307 12.6774C54.0491 12.7877 54.2123 12.7173 54.3244 12.7963C54.3805 12.8358 54.4274 12.6891 54.5 12.6774C54.1417 12.7629 54.1123 13.5386 54.5572 12.9056L55.7023 11.332C56.5349 10.1785 55.8538 8.88055 55.7507 8.703C55.668 8.49789 55.6056 8.26523 55.5751 8.07597L55.5713 8.05232L60.0905 11.2803C60.0905 11.2803 60.0905 11.2803 60.0663 11.2842C59.8726 11.3154 59.6267 11.3308 59.4012 11.3186L59.377 11.3225C59.1961 11.2788 57.699 11.0831 56.8346 12.1932L55.7459 13.6065C55.4731 13.9174 55.2601 14.2915 55.1478 14.6736C55.1516 14.6973 55.1274 14.7012 55.1312 14.7249L55.0032 15.9347C54.9459 16.0411 54.8604 16.1276 54.7432 16.1708C54.626 16.214 54.4731 16.1901 54.361 16.111L52.6797 14.9257C52.5676 14.8467 52.5243 14.7323 52.5052 14.614C52.5104 14.4918 52.5436 14.3894 52.6532 14.2989L53.8027 13.7254C53.8269 13.7215 53.8269 13.7215 53.8473 13.6939C54.1354 13.4776 54.3674 13.2218 54.5434 12.9265C54.625 12.8162 54.5779 12.6782 54.4658 12.5992C54.3537 12.5201 54.2123 12.5672 54.1307 12.6774C53.9713 12.9215 53.7839 13.1459 53.5404 13.3308L52.3909 13.9043C52.3667 13.9082 52.3667 13.9082 52.3463 13.9358C52.127 14.1167 52.0161 14.353 52.0134 14.6447C52.0069 14.9127 52.1457 15.1573 52.3699 15.3154L54.0512 16.5007C54.2473 16.639 54.4805 16.6985 54.6984 16.6634C54.7468 16.6556 54.7952 16.6478 54.8436 16.64C55.1266 16.5459 55.3178 16.3452 55.4249 16.0852C55.4211 16.0616 55.4453 16.0577 55.4415 16.034L55.5695 14.8241C55.6894 14.4893 55.8412 14.1979 56.0974 13.9381L57.2066 12.4974C57.9243 11.5565 59.2799 11.7992 59.2799 11.7992L59.3041 11.7953L59.3284 11.7914C59.6023 11.7958 59.852 11.8041 60.0941 11.7651C60.2878 11.7339 60.4573 11.7066 60.6472 11.6518L60.6714 11.6479C60.6956 11.644 60.7198 11.6401 60.7402 11.6125C61.9036 11.2794 62.9577 10.5756 63.6883 9.55992C65.4094 7.29241 65.063 4.21731 62.9613 2.73563ZM57.7925 1.79666C57.9761 1.54865 58.2476 1.38355 58.5623 1.33284C58.877 1.28213 59.1866 1.35361 59.4388 1.53141C59.9713 1.90677 60.0856 2.61646 59.6942 3.1164C59.3066 3.63999 58.5803 3.75701 58.0721 3.37775C57.5193 3.02995 57.4011 2.2966 57.7925 1.79666ZM55.476 7.4609C55.4787 7.16922 55.4814 6.87754 55.5325 6.57806L61.5293 10.8058C61.254 10.9472 60.9749 11.065 60.6882 11.1355L55.476 7.4609ZM61.9868 10.5622C61.983 10.5385 61.955 10.5188 61.9269 10.499L55.762 6.15275C55.734 6.13299 55.706 6.11323 55.6576 6.12104C55.812 5.53793 56.0913 4.95897 56.4547 4.43928C56.7403 4.05348 57.0615 3.73474 57.4146 3.45942C57.5101 3.58966 57.626 3.69234 57.7381 3.77136C58.1024 4.02818 58.5406 4.12746 58.9522 4.06115C59.3638 3.99484 59.7487 3.76293 60.0139 3.40468C60.2383 3.10155 60.3302 2.74695 60.3252 2.40796C61.1713 2.41727 61.9548 2.65509 62.6273 3.12923C64.5328 4.47262 64.8297 7.24019 63.2998 9.30699C62.9568 9.79913 62.5055 10.2359 61.9868 10.5622Z" fill="#F9F9F9"/>
</svg>
